999
DXF created from potree
0
SECTION
2
HEADER
9
$ACADVER
1
AC1006
9
$INSBASE
10
0.0
20
0.0
30
0.0
9
$EXTMIN
10
24780.915119866826
20
9047.059337389368
30
23.832628134078334
9
$EXTMAX
10
24819.360120689846
20
9092.678336947101
30
31.00362803623733
0
ENDSEC
0
SECTION
2
ENTITIES
0
POLYLINE
8
layer_polyline
62
1
66
1
10
0.0
20
0.0
30
0.0
70
9
0
VERTEX
8
0
10
24790.500119887925
20
9083.571336896317
30
30.600628158307643
70
32
0
VERTEX
8
0
10
24803.491119874452
20
9060.584336934942
30
30.916628143048854
70
32
0
VERTEX
8
0
10
24800.1531200032
20
9058.740336916344
30
31.00362803623733
70
32
0
VERTEX
8
0
10
24787.54811964462
20
9081.698336962121
30
30.622628040052007
70
32
0
VERTEX
8
0
10
24787.54811964462
20
9081.698336962121
30
30.622628040052007
70
32
0
VERTEX
8
0
10
24787.54811964462
20
9081.698336962121
30
30.622628040052007
70
32
0
SEQEND
0
POLYLINE
8
layer_polyline
62
1
66
1
10
0.0
20
0.0
30
0.0
70
9
0
VERTEX
8
0
10
24780.915119866826
20
9055.58533699073
30
24.118628121352742
70
32
0
VERTEX
8
0
10
24785.83812008331
20
9058.700337000268
30
24.100628144479344
70
32
0
VERTEX
8
0
10
24791.360119827725
20
9049.3213369049
30
23.91062813196237
70
32
0
VERTEX
8
0
10
24786.92911968658
20
9047.059337389368
30
23.97262813839967
70
32
0
VERTEX
8
0
10
24786.92911968658
20
9047.059337389368
30
23.97262813839967
70
32
0
VERTEX
8
0
10
24786.92911968658
20
9047.059337389368
30
23.97262813839967
70
32
0
SEQEND
0
POLYLINE
8
layer_polyline
62
1
66
1
10
0.0
20
0.0
30
0.0
70
9
0
VERTEX
8
0
10
24815.563119713283
20
9092.678336947101
30
23.832628134078334
70
32
0
VERTEX
8
0
10
24819.360120689846
20
9083.803336504358
30
24.019628129339765
70
32
0
VERTEX
8
0
10
24810.917118904566
20
9076.013341822045
30
24.818628139234136
70
32
0
VERTEX
8
0
10
24806.20412007568
20
9087.517337114708
30
23.853628135657857
70
32
0
VERTEX
8
0
10
24806.20412007568
20
9087.517337114708
30
23.853628135657857
70
32
0
VERTEX
8
0
10
24806.20412007568
20
9087.517337114708
30
23.853628135657857
70
32
0
VERTEX
8
0
10
24806.20412007568
20
9087.517337114708
30
23.853628135657857
70
32
0
VERTEX
8
0
10
24806.20412007568
20
9087.517337114708
30
23.853628135657857
70
32
0
VERTEX
8
0
10
24806.20412007568
20
9087.517337114708
30
23.853628135657857
70
32
0
VERTEX
8
0
10
24806.20412007568
20
9087.517337114708
30
23.853628135657857
70
32
0
VERTEX
8
0
10
24806.20412007568
20
9087.517337114708
30
23.853628135657857
70
32
0
VERTEX
8
0
10
24806.20412007568
20
9087.517337114708
30
23.853628135657857
70
32
0
VERTEX
8
0
10
24806.20412007568
20
9087.517337114708
30
23.853628135657857
70
32
0
VERTEX
8
0
10
24806.20412007568
20
9087.517337114708
30
23.853628135657857
70
32
0
VERTEX
8
0
10
24806.20412007568
20
9087.517337114708
30
23.853628135657857
70
32
0
VERTEX
8
0
10
24806.20412007568
20
9087.517337114708
30
23.853628135657857
70
32
0
VERTEX
8
0
10
24806.20412007568
20
9087.517337114708
30
23.853628135657857
70
32
0
VERTEX
8
0
10
24806.20412007568
20
9087.517337114708
30
23.853628135657857
70
32
0
SEQEND
0
ENDSEC
0
EOF